<?xml version="1.0" encoding="UTF-8" standalone="no"?>
<svg
   xmlns:dc="http://purl.org/dc/elements/1.1/"
   xmlns:cc="http://creativecommons.org/ns#"
   xmlns:rdf="http://www.w3.org/1999/02/22-rdf-syntax-ns#"
   xmlns:svg="http://www.w3.org/2000/svg"
   xmlns="http://www.w3.org/2000/svg"
   viewBox="0 0 666.66669 496.81332"
   height="496.81332"
   width="666.66669"
   xml:space="preserve"
   id="svg2"
   version="1.1"><metadata
     id="metadata8"><rdf:RDF><cc:Work
         rdf:about=""><dc:format>image/svg+xml</dc:format><dc:type
           rdf:resource="http://purl.org/dc/dcmitype/StillImage" /></cc:Work></rdf:RDF></metadata><defs
     id="defs6" /><g
     transform="matrix(1.3333333,0,0,-1.3333333,0,496.81333)"
     id="g10"><g
       transform="scale(0.1)"
       id="g12"><path
         id="path14"
         style="fill:#e7e8e5;fill-opacity:1;fill-rule:nonzero;stroke:none"
         d="m 0,449.129 h 5000 v 2.5 H 0 Z" /><path
         id="path16"
         style="fill:#e7e8e5;fill-opacity:1;fill-rule:nonzero;stroke:none"
         d="m 4282.22,290.672 h 216.79 v -2.5 h -216.79 v 2.5" /><path
         id="path18"
         style="fill:#e7e8e5;fill-opacity:1;fill-rule:nonzero;stroke:none"
         d="m 3105.58,340.059 h 341.09 v 2.5 h -341.09 z" /><path
         id="path20"
         style="fill:#e7e8e5;fill-opacity:1;fill-rule:nonzero;stroke:none"
         d="m 3965.86,383.539 h 445.25 v -2.5 h -445.25 v 2.5" /><path
         id="path22"
         style="fill:#e7e8e5;fill-opacity:1;fill-rule:nonzero;stroke:none"
         d="m 1730.14,330.621 h -111.37 v 2.5 h 111.37 v -2.5" /><path
         id="path24"
         style="fill:#e7e8e5;fill-opacity:1;fill-rule:nonzero;stroke:none"
         d="m 1145.85,330.621 h 383.879 v 2.5 H 1145.85 Z" /><path
         id="path26"
         style="fill:#e7e8e5;fill-opacity:1;fill-rule:nonzero;stroke:none"
         d="M 940.02,372.84 H 663.066 v 2.5 H 940.02 v -2.5" /><path
         id="path32"
         style="fill:#e7e8e5;fill-opacity:1;fill-rule:nonzero;stroke:none"
         d="m 1272.76,1841.12 c -287.78,9.87 -513.127,251.21 -503.272,539 9.875,288.12 251.212,513.45 538.992,503.6 287.78,-9.86 513.14,-251.19 503.26,-539.31 -9.86,-287.8 -251.2,-513.14 -538.98,-503.29 z m 887.97,425.72 4.5,131.4 -80.68,26.36 c -3.32,44.9 -10.82,89.24 -21.51,131.96 l 68.38,50.42 -46.45,123.43 -84.58,-6.81 c -20.16,39.92 -43.85,77.88 -70.41,113.5 l 43.82,73.13 -90.09,96.11 -75.61,-38.72 c -34.06,28.94 -69.97,55.17 -108.4,78.35 l 12.25,83.93 -119.98,54.46 -54.97,-64.43 c -41.88,13.59 -85.27,23.75 -130.16,30.49 l -20.45,82.29 -131.75,4.51 -26.02,-80.68 c -45.26,-3.66 -89.24,-10.84 -131.96,-21.52 l -50.78,68.05 -123.423,-46.12 6.824,-84.59 c -39.922,-20.49 -77.879,-44.18 -113.504,-70.74 l -72.781,43.8 -96.457,-89.72 38.711,-75.95 c -28.926,-33.72 -55.16,-69.98 -78.008,-108.42 l -83.918,12.59 -54.789,-119.95 64.762,-54.99 c -13.578,-41.89 -24.109,-85.62 -30.492,-130.18 l -82.637,-20.76 -4.504,-131.42 81.02,-26.38 c 3.308,-45.24 10.832,-89.24 21.515,-131.95 l -68.371,-50.42 46.449,-123.45 84.582,6.84 c 20.161,-39.91 43.852,-77.88 70.403,-113.51 l -43.821,-73.12 90.09,-96.12 75.61,38.73 c 33.722,-28.94 69.968,-55.18 108.398,-78.36 l -12.598,-83.91 119.977,-54.45 55.322,64.41 c 41.88,-13.59 85.27,-23.76 130.17,-30.5 l 20.44,-82.27 131.75,-4.52 26.03,80.69 c 45.25,3.65 89.23,10.82 131.95,21.51 l 50.43,-68.03 123.42,46.11 -6.47,84.56 c 39.93,20.5 77.54,44.21 113.5,70.76 l 72.79,-43.82 96.45,89.74 -38.7,75.95 c 28.92,33.73 55.16,69.98 78,108.42 l 83.92,-12.6 54.79,119.97 -64.77,54.98 c 13.59,41.87 24.1,85.26 30.49,130.17 l 82.3,20.79" /><path
         id="path34"
         style="fill:#e7e8e5;fill-opacity:1;fill-rule:nonzero;stroke:none"
         d="m 4173.41,2892.7 c -24.38,26.11 -22.98,67.05 3.13,91.43 26.15,24.42 67.09,23.01 91.47,-3.1 24.39,-26.12 22.98,-67.05 -3.16,-91.47 -26.11,-24.38 -67.06,-22.98 -91.44,3.14 z m 236.16,-191.31 33.14,30.95 -13.24,26.09 c 10.14,11.76 19.12,24.4 26.93,37.42 l 28.97,-4.37 18.77,41.42 -22.29,18.97 c 4.82,14.63 8.3,29.67 10.51,44.83 l 28.52,7.16 1.47,45.4 -27.88,8.99 c -1.25,15.36 -3.61,30.51 -7.33,45.54 l 23.46,17.48 -15.98,42.53 -29.12,-2.3 c -6.9,13.52 -15,26.59 -24.3,39.18 l 15.08,25.04 -31.03,33.24 -26.02,-13.34 c -11.93,10.14 -24.4,19.12 -37.42,26.93 l 4.21,28.97 -41.34,18.86 -18.96,-22.29 c -14.74,4.73 -29.77,8.21 -44.93,10.43 l -7.07,28.43 -45.4,1.64 -9.08,-27.96 c -15.28,-1.18 -30.51,-3.62 -45.46,-7.42 l -17.39,23.53 -42.61,-15.89 2.38,-29.2 c -13.52,-6.9 -26.75,-15 -39.18,-24.31 l -25.21,15.09 -33.14,-30.95 13.32,-26.19 c -10.22,-11.83 -19.12,-24.4 -26.93,-37.42 l -28.97,4.39 -18.77,-41.44 22.29,-18.95 c -4.81,-14.65 -8.3,-29.69 -10.51,-44.85 l -28.51,-7.14 -1.48,-45.42 27.89,-8.98 c 1.16,-15.28 3.6,-30.52 7.32,-45.55 l -23.53,-17.38 15.98,-42.54 29.19,2.22 c 6.9,-13.53 15,-26.59 24.31,-39.17 l -15.08,-25.05 31.02,-33.23 26.03,13.33 c 11.92,-10.15 24.39,-19.12 37.42,-26.93 l -4.3,-28.89 41.35,-18.85 19.04,22.2 c 14.73,-4.74 29.69,-8.13 44.93,-10.42 l 7.06,-28.44 45.4,-1.63 9.09,27.96 c 15.27,1.16 30.51,3.6 45.45,7.41 l 17.39,-23.54 42.62,15.89 -2.39,29.21 c 13.52,6.9 26.67,14.91 39.18,24.3 l 25.13,-14.99" /><path
         id="path36"
         style="fill:#e7e8e5;fill-opacity:1;fill-rule:nonzero;stroke:none"
         d="m 2515.37,1018.36 c -136.54,4.68 -243.2,119.31 -238.53,255.46 4.67,136.54 118.91,243.21 255.45,238.54 136.55,-4.68 243.22,-118.92 238.54,-255.46 -4.66,-136.16 -118.92,-243.22 -255.46,-238.54 m 684.52,333.9 -103.41,71.41 -0.06,0.25 c -10.22,37.56 -24.34,73.73 -41.59,107.71 l 26.5,103.98 -150,160.65 -105.59,-19.33 c -32.69,19.51 -67.79,36.05 -104.54,48.82 l -0.26,0.08 -64.2,108.1 -219.64,7.53 -71.42,-103.42 -0.41,-0.1 c -37.53,-10.22 -73.65,-24.31 -107.6,-41.53 l -103.93,26.49 -160.64,-150.01 19.29,-105.37 -0.06,-0.1 c -19.92,-33.06 -36.07,-68.17 -48.84,-104.93 l -108.08,-64.17 -7.53,-219.66 103.51,-71.47 c 10.21,-37.83 23.89,-73.91 41.47,-108.178 l 0.02,-0.043 -26.42,-103.668 150,-160.621 104.93,19.199 c 33.12,-19.578 68.26,-36.149 105.46,-48.93 l 0.09,-0.027 64.09,-107.942 219.65,-7.531 71.37,103.34 c 37.97,10.223 74.15,24.32 108.51,41.59 l 0.03,0.019 103.46,-26.367 160.64,149.989 -19.3,105.402 c 19.92,33.07 36.08,68.188 48.85,104.948 l 0.01,0.02 108.12,64.21 7.52,219.66" /><path
         id="path38"
         style="fill:#e7e8e5;fill-opacity:1;fill-rule:nonzero;stroke:none"
         d="m 3366.9,2804.41 c -146.98,0 -269,-116.95 -274.07,-264.96 -5.18,-151.18 113.6,-278.38 264.79,-283.57 73.25,-2.45 143.11,23.68 196.68,73.77 53.53,50.04 84.39,117.88 86.9,191.01 5.17,151.19 -113.61,278.4 -264.79,283.59 -3.18,0.11 -6.36,0.16 -9.51,0.16 z m 0.38,-590.93 c -3.7,0 -7.39,0.07 -11.11,0.19 -174.46,5.98 -311.53,152.78 -305.55,327.23 5.98,174.45 153.01,311.48 327.23,305.56 174.46,-5.98 311.53,-152.78 305.55,-327.24 -2.89,-84.4 -38.5,-162.69 -100.26,-220.42 -59.11,-55.25 -135.4,-85.32 -215.86,-85.32 z m 155.13,758.47 h 0.1 z m -247.83,-948.12 150.09,-5.15 49.71,71.98 c 2.84,4.12 7.05,7.09 11.88,8.39 27.65,7.44 55.09,17.95 81.55,31.26 l 0.14,0.07 c 4.41,2.17 9.55,2.84 14.58,1.53 l 70.39,-17.92 109.76,102.49 -13.13,71.73 c -0.93,5.06 0.03,10.29 2.68,14.7 14.48,24.03 26.76,50.39 36.51,78.34 1.6,4.96 4.99,9.13 9.4,11.73 l 75.23,44.68 5.15,150.09 -72.04,49.75 c -3.77,2.6 -6.58,6.36 -8.03,10.69 l -0.49,1.69 c -7.53,27.58 -18,54.68 -31.14,80.55 -2.32,4.57 -2.89,9.82 -1.63,14.78 l 18.04,70.78 -102.5,109.78 -71.89,-13.16 c -5.04,-0.93 -10.23,0.02 -14.62,2.64 -25,14.92 -51.4,27.24 -78.46,36.66 -1.53,0.52 -3.08,1.23 -4.41,2.05 -2.92,1.79 -5.35,4.26 -7.09,7.2 l -44.72,75.3 -150.1,5.14 -49.74,-72.04 c -2.96,-4.29 -7.4,-7.31 -12.43,-8.52 -27.77,-7.61 -54.78,-18.05 -80.54,-31.13 -4.57,-2.31 -9.83,-2.9 -14.77,-1.63 l -70.75,18.04 -109.77,-102.51 13.13,-71.73 c 0.82,-4.5 0.16,-9.15 -1.89,-13.24 l -0.95,-1.7 c -14.51,-24.12 -26.81,-50.56 -36.54,-78.59 -1.64,-4.7 -4.89,-8.69 -9.17,-11.23 l -75.28,-44.7 -5.14,-150.09 72.1,-49.79 c 4.11,-2.84 7.08,-7.05 8.38,-11.87 7.77,-28.76 18.24,-56.06 31.1,-81.17 0.74,-1.44 1.32,-2.96 1.71,-4.54 0.85,-3.39 0.85,-6.95 -0.02,-10.33 l -17.98,-70.54 102.5,-109.76 71.38,13.06 c 5.02,0.91 10.18,-0.02 14.55,-2.6 25.45,-15.05 51.98,-27.37 78.87,-36.65 4.86,-1.54 9.07,-4.82 11.75,-9.34 z m 160.9,-47.75 h -0.72 l -173.17,5.93 c -7.19,0.25 -13.76,4.14 -17.43,10.32 l -46.63,78.53 c -24.79,8.99 -49.22,20.33 -72.82,33.78 l -75.07,-13.73 c -7.09,-1.34 -14.32,1.09 -19.23,6.36 l -118.26,126.63 c -4.91,5.26 -6.8,12.65 -5.03,19.63 l 18.88,74.1 c -11.47,23.46 -21.07,48.53 -28.59,74.7 l -75.31,52.01 c -5.92,4.08 -9.35,10.9 -9.11,18.09 l 5.94,173.18 c 0.24,7.18 4.13,13.76 10.32,17.43 l 78.66,46.71 c 9.33,25.53 20.63,49.85 33.7,72.48 l -13.8,75.33 c -1.29,7.07 1.11,14.33 6.36,19.23 l 126.65,118.27 c 5.26,4.92 12.66,6.8 19.63,5.03 l 74.34,-18.96 c 24.06,11.7 49.05,21.34 74.5,28.71 l 51.96,75.26 c 4.09,5.92 10.8,9.58 18.1,9.1 l 173.17,-5.94 c 7.19,-0.24 13.76,-4.13 17.43,-10.32 l 46.72,-78.66 c 24.82,-9.09 49.07,-20.4 72.27,-33.72 l 75.54,13.83 c 7.09,1.29 14.32,-1.1 19.24,-6.35 l 118.25,-126.66 c 4.91,-5.27 6.8,-12.66 5.03,-19.63 l -18.95,-74.37 c 11.71,-24.07 21.34,-49.05 28.71,-74.47 l 75.25,-51.96 c 5.92,-4.08 9.35,-10.91 9.11,-18.1 l -5.93,-173.18 c -0.25,-7.19 -4.14,-13.76 -10.33,-17.43 l -78.69,-46.73 c -9.32,-25.53 -20.62,-49.84 -33.66,-72.43 l 13.79,-75.36 c 1.3,-7.07 -1.1,-14.33 -6.36,-19.23 L 3673.3,2075.24 c -5.26,-4.92 -12.64,-6.81 -19.63,-5.02 l -74.01,18.85 c -24.4,-11.77 -49.52,-21.4 -74.88,-28.7 l -51.92,-75.18 c -3.95,-5.72 -10.45,-9.11 -17.38,-9.11" /><path
         id="path40"
         style="fill:#dadbd8;fill-opacity:1;fill-rule:nonzero;stroke:none"
         d="m 3834.39,3222.38 -71.74,19.27 -19.26,71.73 28.09,28.08 29.63,-61.36 61.37,-29.63 -28.09,-28.09" /><path
         id="path42"
         style="fill:#dadbd8;fill-opacity:1;fill-rule:nonzero;stroke:none"
         d="m 3838.85,3270.4 c 13.06,13.07 13.06,34.37 -0.01,47.44 -13.06,13.06 -34.27,12.97 -47.34,-0.09 l 35.68,53.52 47.86,-24.19 10.49,-50.28 -46.68,-26.4" /><path
         id="path44"
         style="fill:#ededeb;fill-opacity:1;fill-rule:nonzero;stroke:none"
         d="m 3861.27,3292.82 c 13.07,13.08 13.07,34.38 0,47.45 -13.07,13.06 -34.27,12.96 -47.34,-0.1 -13.07,-13.07 -13.07,-34.18 0,-47.25 13.07,-13.06 34.27,-13.16 47.34,-0.1 z m -95.45,42.98 52.57,52.57 71.73,-19.26 19.26,-71.73 -52.56,-52.58 -71.74,19.27 -19.26,71.73" /><path
         id="path46"
         style="fill:#dadbd8;fill-opacity:1;fill-rule:nonzero;stroke:none"
         d="m 902.211,1308.54 38.492,10.34 10.336,38.48 -15.07,15.07 -15.903,-32.92 -32.925,-15.91 15.07,-15.06" /><path
         id="path48"
         style="fill:#dadbd8;fill-opacity:1;fill-rule:nonzero;stroke:none"
         d="m 899.82,1334.3 c -7.015,7.02 -7.015,18.44 0,25.46 7.012,7.01 18.391,6.96 25.403,-0.05 l -19.145,28.72 -25.683,-12.98 -5.625,-26.98 25.05,-14.17" /><path
         id="path50"
         style="fill:#ededeb;fill-opacity:1;fill-rule:nonzero;stroke:none"
         d="m 887.781,1346.34 c -7.011,7.01 -7.011,18.44 0.004,25.45 7.012,7.01 18.391,6.96 25.403,-0.05 7.011,-7.01 7.011,-18.34 0,-25.35 -7.012,-7.01 -18.391,-7.06 -25.407,-0.05 z m 51.227,23.07 -28.211,28.2 -38.492,-10.33 -10.34,-38.5 28.211,-28.21 38.492,10.34 10.34,38.5" /><path
         id="path52"
         style="fill:#ededeb;fill-opacity:1;fill-rule:nonzero;stroke:none"
         d="m 763.625,3419 31.949,-31.96 c 8.317,-8.32 21.93,-8.32 30.25,0 8.317,8.32 8.317,21.94 0,30.26 l -31.949,31.94 c -8.32,8.32 -21.934,8.32 -30.25,0 -8.32,-8.32 -8.32,-21.92 0,-30.24" /><path
         id="path54"
         style="fill:#dadbd8;fill-opacity:1;fill-rule:nonzero;stroke:none"
         d="m 741.117,3498.57 c 24.621,8.83 51.309,-2.73 59.61,-25.84 8.3,-23.11 -4.93,-49.01 -29.551,-57.85 -24.617,-8.84 -51.305,2.72 -59.606,25.82 -8.3,23.12 4.93,49.02 29.547,57.87" /><path
         id="path56"
         style="fill:#ededeb;fill-opacity:1;fill-rule:nonzero;stroke:none"
         d="m 706.297,3446.09 4.633,-12.89 95.07,34.14 -4.633,12.89 -95.07,-34.14" /><path
         id="path58"
         style="fill:#f3f2f1;fill-opacity:1;fill-rule:nonzero;stroke:none"
         d="M 4438.89,113.23 C 4438.89,50.6914 3570.83,0 2500,0 1429.18,0 561.109,50.6914 561.109,113.23 c 0,62.54 868.071,113.239 1938.891,113.239 1070.83,0 1938.89,-50.699 1938.89,-113.239" /><path
         id="path60"
         style="fill:#17282f;fill-opacity:1;fill-rule:nonzero;stroke:none"
         d="m 950.598,3087.73 c 6.191,-27.24 15.699,-45.66 28.527,-55.25 12.82,-9.61 27.945,-12.41 45.365,-8.44 17.91,4.06 30.45,13.03 37.61,26.92 7.17,13.88 7.32,35.92 0.46,66.09 -5.78,25.39 -15.12,42.79 -28.02,52.18 -12.91,9.38 -28.13,12.08 -45.669,8.09 -16.812,-3.82 -28.953,-12.85 -36.426,-27.05 -7.48,-14.22 -8.097,-35.06 -1.847,-62.54 z m -83.442,-18.58 c -10.011,44.03 -5.543,81.1 13.418,111.23 18.953,30.11 50.336,50.14 94.129,60.1 44.897,10.2 82.227,6.02 111.997,-12.57 29.77,-18.58 49.59,-49.58 59.46,-93.01 7.17,-31.53 7.74,-58.59 1.72,-81.18 -6.02,-22.59 -17.79,-41.79 -35.29,-57.57 -17.51,-15.79 -41.23,-27.07 -71.16,-33.87 -30.42,-6.93 -56.7,-7.81 -78.84,-2.65 -22.137,5.16 -41.785,16.82 -58.945,34.99 -17.157,18.15 -29.321,43 -36.489,74.53" /><path
         id="path62"
         style="fill:#17282f;fill-opacity:1;fill-rule:nonzero;stroke:none"
         d="m 1260.97,3119.39 c 3.95,-17.42 10.41,-29.5 19.36,-36.25 8.95,-6.73 18.76,-8.88 29.44,-6.46 10.79,2.46 18.72,8.59 23.78,18.38 5.07,9.8 5.53,23.77 1.41,41.91 -3.85,16.94 -10.22,28.75 -19.09,35.44 -8.88,6.69 -18.47,8.87 -28.77,6.53 -10.92,-2.48 -18.98,-8.74 -24.18,-18.76 -5.21,-10.01 -5.86,-23.62 -1.95,-40.79 z m -75.04,-17.25 c -6.78,29.81 -2.3,56.66 13.43,80.56 15.72,23.89 40.7,39.73 74.92,47.51 39.14,8.89 71.28,4.27 96.44,-13.88 20.22,-14.63 33.37,-35.31 39.45,-62.05 6.83,-30.07 2.47,-56.96 -13.1,-80.69 -15.57,-23.73 -40.96,-39.59 -76.17,-47.59 -31.4,-7.14 -58.61,-4.95 -81.62,6.6 -28.29,14.33 -46.07,37.52 -53.35,69.54" /><path
         id="path64"
         style="fill:#17282f;fill-opacity:1;fill-rule:nonzero;stroke:none"
         d="m 1521.94,3178.53 c 3.51,-15.46 9.37,-26.19 17.57,-32.2 8.2,-6.01 17.27,-7.87 27.21,-5.62 8.71,1.99 15.19,7.23 19.45,15.75 4.25,8.51 4.43,21.35 0.53,38.53 -3.6,15.83 -9.31,26.75 -17.13,32.78 -7.82,6.03 -16.15,8.03 -24.98,6.03 -9.57,-2.18 -16.69,-7.75 -21.37,-16.66 -4.68,-8.94 -5.11,-21.81 -1.28,-38.61 z m -36.09,-188.58 -61.33,269.77 70.11,15.94 6.56,-28.88 c 6.94,14.33 13.96,24.57 21.08,30.71 9.61,8.24 21.04,13.88 34.29,16.89 26.13,5.94 48.61,0.53 67.44,-16.2 18.84,-16.75 31.61,-39.85 38.3,-69.29 7.39,-32.51 5.24,-59.09 -6.45,-79.75 -11.69,-20.65 -29.43,-33.69 -53.23,-39.1 -11.53,-2.62 -22.5,-3.05 -32.9,-1.28 -10.4,1.77 -20.22,5.65 -29.45,11.68 l 21.21,-93.29 -75.63,-17.2" /><path
         id="path66"
         style="fill:#17282f;fill-opacity:1;fill-rule:nonzero;stroke:none"
         d="m 1694.35,3172.63 72.75,23.89 c 5.07,-8.13 10.8,-13.47 17.19,-16.03 6.38,-2.54 14.18,-2.78 23.38,-0.69 10.05,2.3 17.36,6.21 21.9,11.75 3.57,4.16 4.81,8.63 3.72,13.41 -1.22,5.39 -4.99,8.92 -11.3,10.57 -4.52,1.16 -15.84,1.29 -33.95,0.4 -27.04,-1.39 -46.06,-1.29 -57.06,0.26 -11,1.58 -21.01,6.15 -30.03,13.77 -9.01,7.61 -14.86,17.32 -17.54,29.08 -2.92,12.87 -1.7,24.8 3.66,35.82 5.37,11.01 14.09,20.32 26.17,27.89 12.08,7.58 29.16,13.88 51.24,18.9 23.32,5.3 40.92,7.42 52.84,6.4 11.91,-1.04 22.42,-4.46 31.54,-10.25 9.13,-5.8 17.59,-14.51 25.4,-26.16 l -69.44,-23.14 c -3.26,5.85 -7.37,9.74 -12.33,11.71 -6.79,2.59 -14.35,2.95 -22.69,1.04 -8.46,-1.92 -14.28,-4.82 -17.47,-8.7 -3.18,-3.88 -4.29,-7.97 -3.31,-12.26 1.08,-4.77 4.36,-7.83 9.83,-9.16 5.46,-1.34 16.63,-1.11 33.52,0.67 25.54,2.83 44.96,3.12 58.24,0.86 13.29,-2.26 24.21,-7.33 32.77,-15.17 8.56,-7.85 14.1,-17.35 16.64,-28.51 2.56,-11.27 1.65,-23.01 -2.73,-35.22 -4.39,-12.21 -13.2,-23.13 -26.42,-32.78 -13.22,-9.63 -32.47,-17.34 -57.74,-23.09 -35.7,-8.11 -62.28,-8.79 -79.74,-2.06 -17.47,6.74 -30.48,19.01 -39.04,36.8" /><path
         id="path68"
         style="fill:#17282f;fill-opacity:1;fill-rule:nonzero;stroke:none"
         d="m 1942.5,3211.07 76.61,0.43 0.38,-67.73 -76.61,-0.44 z m -4.01,208.88 82.08,0.46 0.36,-63.03 -15.14,-126.7 -50.76,-0.29 -16.18,126.54 -0.36,63.02" /><path
         id="path70"
         style="fill:#17282f;fill-opacity:1;fill-rule:nonzero;stroke:none"
         d="m 1092.68,2798.14 c -1.69,-1.56 -6.55,-7.85 -13.52,-32.21 -9.2,-32.13 -3.53,-61.44 7.27,-82.46 2.07,4.33 3.51,9.33 4.5,14.02 10.37,49.1 7.35,93.54 1.75,100.65 z m 65.86,-31.51 c -2.59,-4.85 -6.92,-14.84 -13.4,-35.29 -8.59,-27.08 -8.63,-48.84 -3.85,-65.48 l 0.93,2.51 c 11.76,34.38 17.49,81.75 16.32,98.26 z m 71.72,-42.13 c -0.03,0 -5.66,-0.04 -18.27,-23.46 -14.47,-26.85 -18.15,-48.95 -11.28,-67.57 0.84,-2.28 1.84,-4.5 3.01,-6.7 5.34,2.28 9.91,6 13.21,11.04 14,21.41 20.71,65.38 15.5,82.57 -1.07,3.52 -2.16,4.12 -2.17,4.12 z m 56.54,-164.69 -1.8,0.34 c -45.01,17.43 -71.94,34.46 -85.93,54.92 -10.16,-2.04 -21.53,-0.69 -32.32,4.44 -10.48,4.98 -20.56,13.69 -27.8,26.22 -6.76,-5.2 -15.1,-6.63 -24.26,-3.75 -10.16,3.2 -20.73,11.75 -29.52,24.11 -5.59,-4.04 -11.32,-4.64 -15.52,-4.29 -29.73,2.42 -70.017,61.6 -72.908,124.66 -0.125,2.76 2.008,5.1 4.768,5.22 2.7,0.23 5.1,-2 5.22,-4.77 2.74,-59.85 41.1,-113.31 63.73,-115.14 3.67,-0.36 6.74,0.79 9.32,2.79 -13.59,23.83 -20.63,57.82 -10.23,94.12 8.6,30.05 16.19,41.8 25.32,39.62 17.22,-4.28 14.96,-69.71 5.84,-112.88 -2.07,-9.78 -5.05,-16.81 -8.45,-21.83 7.89,-11.65 17.24,-19.49 25.43,-22.07 7.31,-2.29 12.73,-0.35 16.74,3.46 -7.86,19.36 -9.49,45.74 1.18,79.39 14.03,44.28 19.68,45.49 23.06,46.2 2.38,0.5 4.76,-0.28 6.45,-2.2 9.24,-10.43 -1.8,-79.22 -13.44,-113.24 -1.51,-4.43 -3.39,-8.29 -5.57,-11.57 6.21,-12.17 15.35,-20.46 24.93,-25.01 7.68,-3.66 15.56,-4.98 22.73,-4.31 -0.9,1.89 -1.71,3.81 -2.44,5.76 -7.92,21.48 -4.05,46.26 11.85,75.78 10.55,19.58 19.15,28.71 27.07,28.72 h 0.01 c 2.36,0 6.75,-0.87 9.87,-6.62 8.72,-16.09 2.4,-69.19 -14.83,-95.54 -4.06,-6.21 -9.67,-10.91 -16.18,-13.98 13.4,-17.62 38.84,-33.14 79.49,-48.9 2.57,-0.99 3.85,-3.88 2.85,-6.46 -0.76,-1.98 -2.66,-3.19 -4.66,-3.19" /><path
         id="path72"
         style="fill:#17282f;fill-opacity:1;fill-rule:nonzero;stroke:none"
         d="m 1693,2147.49 c 0.56,-1.56 2.79,-5.67 11.66,-13.88 14.87,-13.74 28.38,-19.85 41.31,-18.43 1.07,0.1 2.14,0.26 3.2,0.48 -0.71,3.03 -2.15,5.84 -4.34,8.25 -14.07,15.42 -45,25.18 -51.83,23.58 z M 1658.1,2105 c 3.36,-2.48 8.18,-5.76 15.06,-10.07 13.57,-8.48 25.67,-12.4 36.01,-13.22 -16.58,10.27 -38.25,19.37 -51.07,23.29 z m 8.88,-69.35 c -15.25,0 -31.29,3.47 -45.61,11.88 -2.39,1.41 -3.18,4.46 -1.79,6.85 1.4,2.39 4.47,3.16 6.85,1.78 35.67,-20.94 81.78,-6.33 91.27,8.93 1.1,1.79 2.11,4.06 1.47,6.71 -14.11,-1.5 -31.46,2.24 -51.31,14.66 -25.45,15.9 -27.41,20.63 -27.25,24.42 0.1,2.24 1.37,4.19 3.41,5.23 9.95,5.05 55.05,-15.74 73.85,-28.09 2.46,-1.62 4.54,-3.37 6.22,-5.23 8.31,2.03 14.75,6.32 19.03,11.46 2.93,3.52 4.9,7.37 5.87,11.22 l -2,-0.24 c -15.99,-1.62 -32.03,5.25 -49.11,21.04 -11.74,10.85 -16.3,18.33 -14.78,24.26 0.48,1.88 2.06,5.25 7.18,6.53 13.84,3.44 47.98,-11.11 61.94,-26.41 3.14,-3.44 5.28,-7.49 6.41,-11.84 13.05,6.13 26.85,19.88 43.19,42.71 1.61,2.25 4.73,2.77 6.98,1.16 2.24,-1.6 2.76,-4.73 1.16,-6.98 -18.9,-26.39 -34.65,-41.35 -50.47,-47.46 -0.62,-7.04 -3.53,-14.2 -8.69,-20.4 -5.07,-6.07 -12.46,-11.29 -21.81,-14.11 1,-4.5 0.1,-9.26 -2.8,-13.91 -8.43,-13.58 -32.61,-24.17 -59.21,-24.17" /><path
         id="path74"
         style="fill:#406fbf;fill-opacity:1;fill-rule:nonzero;stroke:none"
         d="m 1010.94,1906.13 259.59,455.68 72.43,-395.36 z m 788.48,143.24 -155.82,-28.3 -141.47,772.11 -300.63,-54.61 -489.891,-869.99 52.602,-287.08 628.369,114.15 43.02,-234.81 300.64,54.61 -43.02,234.8 155.82,28.32 -49.62,270.8" /><path
         id="path76"
         style="fill:#406fbf;fill-opacity:1;fill-rule:nonzero;stroke:none"
         d="m 3054.3,2845.7 c -5.81,53.34 -16.47,100.74 -31.97,142.18 -15.49,41.45 -38.79,82.08 -69.9,121.9 -31.1,39.81 -73.45,74.36 -127.04,103.66 -53.6,29.27 -124.34,49.67 -212.22,61.12 -182.92,23.83 -325.52,-8.64 -427.82,-97.4 -102.31,-88.77 -169.62,-258.81 -201.98,-510.12 -13.16,-102.21 -16.42,-196.69 -9.76,-283.45 6.62,-86.74 22.54,-156.52 47.77,-209.32 34.51,-74.19 83.35,-133.44 146.49,-177.72 63.13,-44.28 149.63,-73.6 259.5,-87.92 195.97,-25.52 341.2,12.09 435.69,112.88 94.48,100.78 157.17,271.12 188.05,511.01 13.78,107.01 14.84,211.41 3.19,313.18" /><path
         id="path78"
         style="fill:#17282f;fill-opacity:1;fill-rule:nonzero;stroke:none"
         d="m 2517.66,2011.28 c -24.05,0.83 -49.65,3 -76.08,6.45 -91.54,11.91 -162.37,35.08 -210.53,68.87 -47.51,33.32 -83.47,77.16 -109.92,134.06 l -0.5,1.03 c -19.22,40.23 -31.78,97.54 -37.34,170.28 -6.05,78.88 -2.96,166.7 9.18,261.03 35.69,277.21 109.41,392.87 164.97,441.07 64.78,56.2 152.21,81.61 267.3,77.66 23.58,-0.8 48.55,-2.91 74.21,-6.25 73.87,-9.62 132.31,-25.97 173.71,-48.57 40.09,-21.92 71.41,-47.11 93.09,-74.86 24.04,-30.76 42.05,-61.94 53.54,-92.68 12.23,-32.71 20.86,-71.6 25.66,-115.58 10.65,-93.09 9.64,-189.54 -2.93,-287.22 -27.73,-215.39 -81.3,-366.73 -159.2,-449.81 -57.79,-61.65 -144.52,-89.61 -265.14,-85.48 h -0.02" /><path
         id="path80"
         style="fill:#406fbf;fill-opacity:1;fill-rule:nonzero;stroke:none"
         d="m 2457.41,2720.04 c -82.95,2.84 -147.91,72.4 -145.06,155.36 2.84,83.05 72.41,148 155.36,145.16 82.95,-2.85 147.91,-72.4 145.06,-155.45 -2.84,-82.96 -72.41,-147.91 -155.36,-145.07 z m 255.95,122.71 1.3,37.88 -23.26,7.59 c -0.95,12.94 -3.12,25.73 -6.2,38.04 l 19.71,14.53 -13.38,35.58 -24.39,-1.96 c -5.81,11.5 -12.64,22.45 -20.29,32.71 l 12.63,21.08 -25.97,27.7 -21.79,-11.15 c -9.82,8.34 -20.17,15.89 -31.25,22.57 l 3.53,24.2 -34.58,15.7 -15.84,-18.58 c -12.08,3.92 -24.58,6.85 -37.52,8.79 l -5.9,23.72 -37.97,1.3 -7.5,-23.25 c -13.05,-1.06 -25.73,-3.13 -38.04,-6.2 l -14.64,19.61 -35.57,-13.29 1.96,-24.39 c -11.5,-5.91 -22.45,-12.73 -32.71,-20.39 l -20.98,12.63 -27.81,-25.86 11.16,-21.9 c -8.34,-9.71 -15.9,-20.16 -22.48,-31.25 l -24.19,3.64 -15.79,-34.58 18.66,-15.85 c -3.91,-12.08 -6.95,-24.68 -8.79,-37.52 l -23.82,-5.99 -1.29,-37.88 23.35,-7.6 c 0.95,-13.04 3.12,-25.73 6.2,-38.03 l -19.71,-14.55 13.39,-35.57 24.38,1.96 c 5.81,-11.5 12.64,-22.44 20.3,-32.71 l -12.64,-21.08 25.97,-27.7 21.8,11.16 c 9.72,-8.34 20.16,-15.91 31.24,-22.59 l -3.63,-24.19 34.58,-15.69 15.95,18.56 c 12.07,-3.91 24.58,-6.84 37.52,-8.79 l 5.89,-23.71 37.98,-1.3 7.5,23.26 c 13.04,1.05 25.72,3.11 38.03,6.2 L 2533,2628 l 35.58,13.29 -1.87,24.37 c 11.51,5.91 22.35,12.75 32.72,20.4 l 20.98,-12.63 27.8,25.87 -11.15,21.88 c 8.33,9.73 15.89,20.18 22.48,31.26 l 24.19,-3.64 15.79,34.59 -18.67,15.85 c 3.92,12.07 6.95,24.57 8.79,37.52 l 23.72,5.99" /><path
         id="path82"
         style="fill:#406fbf;fill-opacity:1;fill-rule:nonzero;stroke:none"
         d="m 2697.58,2007.69 -25.53,2.86 -2.83,16.37 c -0.62,0.14 -1.24,0.28 -1.85,0.43 46.9,14.03 85.16,37.09 115.45,69.41 31.53,33.63 59.08,78.44 82.54,134.16 l 4.99,-17.34 -14,-8.88 c 1.47,-8.48 2.22,-17.17 2.27,-25.95 l 15.35,-6.25 -2.74,-25.54 -16.48,-2.83 c -1.93,-8.36 -4.44,-16.58 -7.76,-24.77 l 11.77,-11.64 -12.35,-22.51 -16.15,3.59 c -5.16,-7.2 -10.77,-13.79 -16.83,-19.9 l 6.5,-15.32 -20.1,-16.05 -13.47,9.59 c -7.42,-4.66 -15.16,-8.6 -23.12,-11.96 l 0.02,-16.61 -24.59,-7.24 -8.88,14.11 c -8.59,-1.46 -17.28,-2.33 -25.94,-2.38 l -6.27,-15.35" /><path
         id="path84"
         style="fill:#22497d;fill-opacity:1;fill-rule:nonzero;stroke:none"
         d="m 2632.69,2022.89 -22.51,12.36 3.71,16.27 c -7.2,5.03 -13.79,10.65 -19.9,16.7 l -15.44,-6.49 -16.05,20.1 9.6,13.59 c -4.67,7.3 -8.61,15.04 -11.97,23 l -16.62,-0.02 -7.23,24.71 14.12,8.87 c -1.47,8.48 -2.34,17.17 -2.28,25.83 l -15.34,6.38 2.74,25.53 16.36,2.71 c 1.93,8.48 4.55,16.7 7.88,24.9 l -11.77,11.64 12.35,22.51 16.14,-3.6 c 5.05,7.2 10.77,13.79 16.72,19.91 l -6.38,15.32 19.97,16.05 13.6,-9.6 c 7.42,4.66 15.16,8.61 23.12,11.96 l -0.14,16.63 24.71,7.22 8.88,-14.11 c 8.59,1.47 17.16,2.34 25.94,2.39 l 6.26,15.34 25.53,-2.86 2.84,-16.35 c 8.36,-1.93 16.7,-4.44 24.77,-7.87 l 11.76,11.88 22.51,-12.35 -3.72,-16.27 c 7.21,-5.04 13.8,-10.65 19.91,-16.71 l 15.32,6.38 16.05,-19.98 -9.48,-13.6 c 4.67,-7.29 8.61,-15.04 11.96,-23.11 l 16.62,0.13 2.13,-7.36 c -23.46,-55.72 -51.01,-100.53 -82.54,-134.16 -30.29,-32.32 -68.55,-55.38 -115.45,-69.41 -7.74,1.86 -15.45,4.24 -22.93,7.31 l -11.75,-11.77 m 70.64,200.03 c -15.73,0 -30.96,-8.34 -39.07,-23.11 -11.86,-21.6 -4.01,-48.77 17.58,-60.64 6.8,-3.73 14.14,-5.5 21.39,-5.5 15.79,0 31.13,8.4 39.26,23.21 11.85,21.59 3.89,48.66 -17.71,60.51 -6.82,3.75 -14.19,5.53 -21.45,5.53" /><path
         id="path86"
         style="fill:#ffffff;fill-opacity:1;fill-rule:nonzero;stroke:none"
         d="m 2815.59,2482.88 c -39.36,1.35 -70.1,34.39 -68.76,73.63 1.35,39.36 34.28,70.11 73.63,68.76 39.36,-1.34 70.11,-34.27 68.76,-73.64 -1.34,-39.24 -34.28,-70.1 -73.63,-68.75 z m 197.31,96.24 -29.81,20.59 -0.02,0.07 c -2.95,10.83 -7.02,21.26 -11.99,31.05 l 7.64,29.97 -43.23,46.3 -30.44,-5.57 c -9.42,5.63 -19.54,10.39 -30.13,14.08 l -0.08,0.02 -18.5,31.16 -63.32,2.17 -20.58,-29.81 -0.12,-0.03 c -10.82,-2.95 -21.23,-7.01 -31.01,-11.97 l -29.96,7.64 -46.31,-43.25 5.57,-30.37 -0.02,-0.03 c -5.74,-9.53 -10.4,-19.65 -14.08,-30.24 l -31.15,-18.5 -2.17,-63.32 29.83,-20.59 c 2.95,-10.91 6.89,-21.31 11.96,-31.19 v -0.01 l -7.61,-29.88 43.23,-46.31 30.25,5.54 c 9.54,-5.64 19.67,-10.42 30.4,-14.1 l 0.02,-0.01 18.48,-31.11 63.31,-2.17 20.57,29.78 c 10.95,2.95 21.37,7.02 31.28,12 h 0.01 l 29.82,-7.6 46.3,43.23 -5.56,30.38 c 5.74,9.53 10.4,19.66 14.08,30.26 v 0 l 31.17,18.51 2.17,63.31" /><path
         id="path88"
         style="fill:#406fbf;fill-opacity:1;fill-rule:nonzero;stroke:none"
         d="m 3179.54,3149.24 c -2.6,14.56 7.11,28.45 21.63,31.05 14.56,2.6 28.44,-7.07 31.04,-21.63 2.61,-14.55 -7.06,-28.43 -21.62,-31.04 -14.52,-2.6 -28.44,7.07 -31.05,21.62 z m 50.88,-64.86 5.22,12.55 0.02,0.02 c 3.74,1.94 7.25,4.25 10.46,6.85 l 11.6,-0.45 13.6,19.53 -4.44,10.73 c 1.32,3.91 2.28,7.99 2.79,12.18 l 0.01,0.03 9.98,9.25 -4.19,23.42 -12.57,5.2 -0.02,0.04 c -1.93,3.74 -4.24,7.25 -6.84,10.45 l 0.45,11.6 -19.53,13.6 -10.71,-4.44 -0.01,0.01 c -3.95,1.36 -8.04,2.27 -12.22,2.78 l -9.24,9.98 -23.42,-4.18 -5.22,-12.58 c -3.77,-1.93 -7.28,-4.21 -10.51,-6.85 v 0 l -11.57,0.44 -13.6,-19.52 4.42,-10.66 c -1.32,-3.96 -2.28,-8.05 -2.79,-12.28 v -0.01 l -9.97,-9.24 4.19,-23.42 12.56,-5.2 c 1.94,-3.79 4.26,-7.3 6.86,-10.54 l 0.01,-0.01 -0.44,-11.54 19.52,-13.6 10.71,4.43 c 3.96,-1.36 8.04,-2.27 12.22,-2.78 h 0.01 l 9.25,-9.98 23.41,4.19" /><path
         id="path90"
         style="fill:#406fbf;fill-opacity:1;fill-rule:nonzero;stroke:none"
         d="m 2956.07,3150.72 -7.63,6.45 c 13.27,15.72 32.1,35.64 60.08,50.29 l 4.63,-8.87 c -29.82,-15.6 -48.92,-38.22 -57.08,-47.87" /><path
         id="path92"
         style="fill:#406fbf;fill-opacity:1;fill-rule:nonzero;stroke:none"
         d="m 3035.91,3207.6 -3.95,9.2 c 37.83,16.2 77.35,22.52 117.39,18.8 l -0.93,-9.96 c -38.4,3.66 -76.24,-2.48 -112.51,-18.04" /><path
         id="path94"
         style="fill:#406fbf;fill-opacity:1;fill-rule:nonzero;stroke:none"
         d="m 3017.03,3138.42 -8.27,5.62 c 20.54,30.17 61.13,56.44 98.72,63.89 l 1.94,-9.8 c -35.22,-7 -73.21,-31.55 -92.39,-59.71" /><path
         id="path96"
         style="fill:#ffffff;fill-opacity:1;fill-rule:nonzero;stroke:none"
         d="m 2243.66,2448.98 c -18.18,-27.44 -24.59,-60.32 -18.03,-92.58 6.55,-32.26 25.27,-60.04 52.71,-78.23 56.66,-37.53 133.29,-22.01 170.81,34.62 37.54,56.64 22.01,133.3 -34.62,170.87 -56.62,37.53 -133.27,21.98 -170.87,-34.68 z m 102.58,-201.28 c -25.28,0 -50.82,7.15 -73.43,22.13 -29.66,19.66 -49.9,49.7 -56.98,84.58 -7.09,34.88 -0.16,70.42 19.49,100.09 h 0.01 c 40.65,61.25 123.52,78.07 184.72,37.5 61.23,-40.62 78.02,-123.49 37.44,-184.73 -25.6,-38.64 -68.04,-59.57 -111.25,-59.57 z m -49.18,-32.36 1.41,-0.2 c 10.71,-3.15 21.85,-5.23 33.11,-6.16 1.21,-0.1 2.34,-0.64 3.18,-1.51 l 20.35,-20.98 59.02,11.97 10.6,27.32 c 0.44,1.13 1.28,2.07 2.35,2.63 10.03,5.22 19.5,11.44 28.15,18.5 0.91,0.75 1.94,1.25 3.24,1.13 l 34.7,-0.53 33.27,50.2 -14.04,31.83 c -0.48,1.08 -0.55,2.29 -0.22,3.42 3.16,10.91 5.23,22.05 6.15,33.11 0.1,1.21 0.63,2.33 1.5,3.18 l 21,20.36 -11.97,59.01 -27.27,10.58 c -1.16,0.45 -2.11,1.31 -2.66,2.42 -5.2,10 -11.43,19.44 -18.51,28.06 -0.75,0.92 -1.16,2.07 -1.14,3.25 l 0.53,34.74 -50.19,33.27 -31.76,-14.01 c -1.08,-0.46 -2.28,-0.54 -3.41,-0.23 -10.84,3.15 -22.02,5.22 -33.23,6.16 -1.21,0.1 -2.33,0.64 -3.17,1.5 l -20.34,20.96 -59.01,-11.97 -10.57,-27.27 c -0.44,-1.13 -1.28,-2.07 -2.36,-2.62 -9.96,-5.19 -19.44,-11.43 -28.17,-18.55 -0.91,-0.74 -2.13,-1.27 -3.25,-1.14 l -34.7,0.54 -33.26,-50.21 14.02,-31.78 c 0.6,-1.37 0.56,-2.93 -0.1,-4.26 -2.82,-9.99 -4.89,-21.15 -5.83,-32.34 -0.1,-1.2 -0.63,-2.32 -1.5,-3.17 l -20.98,-20.35 11.96,-59.02 27.26,-10.56 c 1.22,-0.47 2.2,-1.4 2.74,-2.57 5.18,-9.92 11.39,-19.34 18.43,-27.91 0.75,-0.92 1.17,-2.09 1.15,-3.27 l -0.53,-34.72 50.2,-33.28 31.83,14.04 z m 56.37,-39.29 c -1.34,0 -2.64,0.53 -3.59,1.52 l -20.97,21.61 c -10.68,1.01 -21.24,2.97 -31.45,5.86 l -32.68,-14.41 c -1.55,-0.72 -3.35,-0.53 -4.78,0.4 l -54.75,36.3 c -1.42,0.94 -2.26,2.53 -2.24,4.24 l 0.55,35.64 c -6.65,8.28 -12.59,17.26 -17.67,26.77 l -28.05,10.87 c -1.58,0.62 -2.75,2 -3.09,3.67 l -13.05,64.37 c -0.34,1.67 0.2,3.4 1.42,4.59 l 21.61,20.96 c 1,10.62 2.96,21.2 5.84,31.49 l -14.4,32.64 c -0.69,1.56 -0.53,3.36 0.41,4.78 l 36.29,54.76 c 0.94,1.42 2.27,2.3 4.25,2.24 l 35.61,-0.55 c 8.36,6.68 17.36,12.61 26.79,17.65 l 10.88,28.06 c 0.62,1.59 2,2.76 3.67,3.1 l 64.37,13.05 c 1.68,0.33 3.4,-0.2 4.59,-1.41 l 20.94,-21.59 c 10.64,-1 21.23,-2.97 31.53,-5.85 l 32.63,14.38 c 1.55,0.69 3.35,0.53 4.78,-0.41 l 54.75,-36.29 c 1.42,-0.94 2.26,-2.54 2.23,-4.25 l -0.54,-35.65 c 6.66,-8.29 12.58,-17.27 17.64,-26.75 l 28.07,-10.89 c 1.6,-0.61 2.76,-1.99 3.1,-3.66 l 13.05,-64.37 c 0.34,-1.67 -0.2,-3.4 -1.42,-4.59 l -21.62,-20.97 c -0.99,-10.51 -2.95,-21.06 -5.85,-31.44 l 14.41,-32.68 c 0.69,-1.56 0.54,-3.37 -0.4,-4.79 L 2500,2239.71 c -0.94,-1.42 -2.44,-2.13 -4.24,-2.24 l -35.63,0.54 c -8.3,-6.62 -17.29,-12.53 -26.76,-17.59 l -10.9,-28.12 c -0.62,-1.6 -2.01,-2.76 -3.67,-3.1 l -64.38,-13.06 -0.99,-0.09" /><path
         id="path98"
         style="fill:#406fbf;fill-opacity:1;fill-rule:nonzero;stroke:none"
         d="m 3464.08,2066.3 387.58,353.28 -53.16,-398.42 z m 794.18,-107.18 -156.94,21.18 103.8,778.09 -302.81,40.86 -734.53,-676.26 -38.6,-289.3 632.92,-85.42 -31.57,-236.62 302.82,-40.86 31.56,236.61 156.95,-21.17 36.4,272.89" /><path
         id="path100"
         style="fill:#17282f;fill-opacity:1;fill-rule:nonzero;stroke:none"
         d="m 3941.34,1478.2 -0.91,0.08 c -2.71,0.5 -4.51,3.11 -4.01,5.82 l 233.26,1279.3 c 0.49,2.71 3.12,4.4 5.81,4.02 2.72,-0.49 4.52,-3.1 4.02,-5.82 L 3946.25,1482.31 c -0.44,-2.42 -2.54,-4.11 -4.91,-4.11" /><path
         id="path102"
         style="fill:#17282f;fill-opacity:1;fill-rule:nonzero;stroke:none"
         d="m 4148.31,2741.91 c -0.15,-4.52 -3.94,-8.05 -8.47,-7.91 -4.52,0.16 -8.06,3.96 -7.91,8.48 0.16,4.52 3.95,8.07 8.47,7.91 4.53,-0.16 8.07,-3.94 7.91,-8.48" /><path
         id="path104"
         style="fill:#17282f;fill-opacity:1;fill-rule:nonzero;stroke:none"
         d="m 4114.99,2568.91 c -0.16,-4.52 -3.95,-8.06 -8.47,-7.91 -4.53,0.15 -8.07,3.95 -7.91,8.47 0.15,4.52 3.95,8.07 8.47,7.91 4.52,-0.15 8.06,-3.95 7.91,-8.47" /><path
         id="path106"
         style="fill:#17282f;fill-opacity:1;fill-rule:nonzero;stroke:none"
         d="m 4081.66,2395.9 c -0.15,-4.52 -3.95,-8.06 -8.47,-7.91 -4.52,0.16 -8.06,3.95 -7.91,8.48 0.16,4.52 3.95,8.06 8.47,7.91 4.53,-0.16 8.07,-3.96 7.91,-8.48" /><path
         id="path108"
         style="fill:#17282f;fill-opacity:1;fill-rule:nonzero;stroke:none"
         d="m 4016.13,2215.8 c -0.15,-4.52 -3.94,-8.06 -8.47,-7.91 -4.52,0.16 -8.06,3.95 -7.91,8.47 0.16,4.52 3.95,8.06 8.47,7.91 4.53,-0.16 8.07,-3.95 7.91,-8.47" /><path
         id="path110"
         style="fill:#17282f;fill-opacity:1;fill-rule:nonzero;stroke:none"
         d="m 4015.01,2049.88 c -0.15,-4.52 -3.94,-8.05 -8.47,-7.91 -4.52,0.16 -8.06,3.96 -7.9,8.48 0.15,4.52 3.94,8.07 8.46,7.91 4.53,-0.16 8.07,-3.95 7.91,-8.48" /><path
         id="path112"
         style="fill:#17282f;fill-opacity:1;fill-rule:nonzero;stroke:none"
         d="m 3981.69,1876.88 c -0.16,-4.53 -3.95,-8.06 -8.47,-7.91 -4.52,0.15 -8.07,3.95 -7.91,8.47 0.15,4.52 3.95,8.06 8.47,7.91 4.52,-0.15 8.06,-3.95 7.91,-8.47" /><path
         id="path114"
         style="fill:#17282f;fill-opacity:1;fill-rule:nonzero;stroke:none"
         d="m 3948.36,1703.87 c -0.15,-4.52 -3.94,-8.07 -8.46,-7.91 -4.53,0.15 -8.07,3.95 -7.92,8.47 0.16,4.53 3.95,8.06 8.47,7.91 4.53,-0.15 8.07,-3.95 7.91,-8.47" /><path
         id="path116"
         style="fill:#17282f;fill-opacity:1;fill-rule:nonzero;stroke:none"
         d="m 3915.04,1530.86 c -0.15,-4.52 -3.95,-8.07 -8.47,-7.91 -4.52,0.16 -8.06,3.96 -7.91,8.48 0.16,4.52 3.95,8.05 8.47,7.91 4.52,-0.16 8.07,-3.96 7.91,-8.48" /><path
         id="path118"
         style="fill:#17282f;fill-opacity:1;fill-rule:nonzero;stroke:none"
         d="m 4007.94,2211.08 c -2.31,0 -4.38,1.6 -4.88,3.95 -0.58,2.7 1.13,5.35 3.83,5.94 l 24.84,5.33 c 2.74,0.54 5.36,-1.13 5.94,-3.85 0.58,-2.69 -1.14,-5.35 -3.84,-5.94 l -24.84,-5.33 -1.05,-0.1" /><path
         id="path120"
         style="fill:#17282f;fill-opacity:1;fill-rule:nonzero;stroke:none"
         d="m 4090.85,2303.2 c 0,0 -22.38,-58.29 -29.91,-93.6 -7.54,-35.32 -7.99,-114.25 -7.99,-114.25" /><path
         id="path122"
         style="fill:#17282f;fill-opacity:1;fill-rule:nonzero;stroke:none"
         d="m 4052.95,2090.35 h -0.03 c -2.76,0.02 -4.99,2.27 -4.97,5.03 0.02,3.24 0.54,79.85 8.1,115.27 7.53,35.29 29.21,91.95 30.13,94.35 0.99,2.57 3.87,3.85 6.46,2.87 2.58,-0.98 3.87,-3.88 2.88,-6.45 -0.23,-0.59 -22.33,-58.34 -29.69,-92.86 -7.34,-34.43 -7.88,-112.46 -7.88,-113.24 -0.02,-2.75 -2.25,-4.97 -5,-4.97" /><path
         id="path124"
         style="fill:#17282f;fill-opacity:1;fill-rule:nonzero;stroke:none"
         d="m 2224.52,1227.21 c 13.89,224.02 -11.66,631.26 409.44,577.35 451.36,-57.77 322.23,-585.56 322.23,-585.56 l -731.67,8.21" /><path
         id="path126"
         style="fill:#ffffff;fill-opacity:1;fill-rule:nonzero;stroke:none"
         d="m 2698.89,1545.62 c 0,-101.49 -82.27,-183.75 -183.75,-183.75 -101.49,0 -183.76,82.26 -183.76,183.75 0,101.48 82.27,183.75 183.76,183.75 101.48,0 183.75,-82.27 183.75,-183.75" /><path
         id="path128"
         style="fill:#17282f;fill-opacity:1;fill-rule:nonzero;stroke:none"
         d="m 2539.27,1729.07 c -87.03,14.88 -180.1,-49.28 -189.27,-114.28 l 345.07,-31.73 c -12.16,74.09 -86.74,134.23 -155.8,146.01" /><path
         id="path130"
         style="fill:#17282f;fill-opacity:1;fill-rule:nonzero;stroke:none"
         d="m 2655.76,1550.19 c -2.47,-48.04 -28.65,-85.75 -58.48,-84.21 -29.83,1.53 -52.01,41.72 -49.54,89.75 2.46,48.04 28.64,85.75 58.47,84.21 29.83,-1.52 52.02,-41.71 49.55,-89.75" /><path
         id="path132"
         style="fill:#406fbf;fill-opacity:1;fill-rule:nonzero;stroke:none"
         d="m 2515.14,1719.37 c -95.81,0 -173.76,-77.94 -173.76,-173.75 0,-95.81 77.95,-173.75 173.76,-173.75 95.8,0 173.75,77.94 173.75,173.75 0,95.81 -77.95,173.75 -173.75,173.75 z m 0,-367.5 c -106.84,0 -193.76,86.91 -193.76,193.75 0,106.83 86.92,193.75 193.76,193.75 106.83,0 193.75,-86.92 193.75,-193.75 0,-106.84 -86.92,-193.75 -193.75,-193.75" /><path
         id="path134"
         style="fill:#57666b;fill-opacity:1;fill-rule:nonzero;stroke:none"
         d="m 2920.76,1309.61 -10.01,0.22 c 5.08,52.43 6.59,127.59 -11.66,203.22 -0.65,2.68 1,5.38 3.68,6.03 0.38,0.09 0.76,0.13 1.13,0.13 2.26,0 4.35,-1.51 4.9,-3.82 18.48,-76.5 17.06,-152.51 11.96,-205.78" /><path
         id="path136"
         style="fill:#57666b;fill-opacity:1;fill-rule:nonzero;stroke:none"
         d="m 2876.98,1588.03 c -1.9,0 -3.71,1.08 -4.55,2.92 -12.86,28.05 -28.81,53.82 -47.42,76.57 -1.74,2.14 -1.43,5.28 0.71,7.03 0.93,0.77 2.05,1.14 3.17,1.14 1.44,0 2.88,-0.63 3.87,-1.84 19.14,-23.41 35.55,-49.9 48.76,-78.74 1.16,-2.51 0.05,-5.48 -2.46,-6.62 l -2.08,-0.46" /><path
         id="path138"
         style="fill:#17282f;fill-opacity:1;fill-rule:nonzero;stroke:none"
         d="m 1287.35,176.441 c -1.25,0 -2.48,0.008 -3.72,0.039 -27.61,0.77 -49.37,23.762 -48.61,51.36 0.75,27.601 23.49,48.949 51.35,48.609 l 0.96,-0.008 c 28.89,0 98.39,35.09 243.78,264.289 7.82,12.309 20.61,20.598 35.04,22.7 14.45,2.05 29.05,-2.231 40.05,-11.801 179.41,-156.418 369.53,-253.797 371.43,-254.758 24.62,-12.5 34.44,-42.601 21.95,-67.211 -12.5,-24.621 -42.59,-34.469 -67.2,-21.961 -7.55,3.821 -173.73,88.793 -347.98,231.461 C 1462.54,255.969 1372.11,176.441 1287.35,176.441" /><path
         id="path140"
         style="fill:#17282f;fill-opacity:1;fill-rule:nonzero;stroke:none"
         d="m 1596.7,560.621 c -1.41,0 -2.84,0.09 -4.28,0.301 -16.4,2.34 -27.8,17.539 -25.45,33.937 7.11,49.77 -1.71,236.262 -64.75,381.262 -5.75,13.219 -1.29,28.649 10.62,36.759 136.98,93.35 428.76,104.51 441.12,104.94 16.47,0.36 30.44,-12.38 31.02,-28.93 0.58,-16.56 -12.38,-30.45 -28.93,-31.03 -2.71,-0.1 -257.8,-9.88 -388.88,-82.02 55.84,-144.379 68.49,-324.36 59.19,-389.469 -2.14,-14.961 -14.97,-25.75 -29.66,-25.75" /><path
         id="path142"
         style="fill:#406fbf;fill-opacity:1;fill-rule:nonzero;stroke:none"
         d="m 1647.1,599.449 c -19.96,47.063 -109.88,41.723 -162.68,1.391 -28.22,-21.551 -66.41,-86.41 -70.43,-109.91 -4.01,-23.508 12.28,-44.809 40.24,-42.379 34.47,2.98 81.81,53.078 81.81,53.078 -31.49,-30.879 9.14,-52.66 69.77,-8.02 33.63,24.782 63.63,53.153 41.29,105.84" /><path
         id="path144"
         style="fill:#17282f;fill-opacity:1;fill-rule:nonzero;stroke:none"
         d="m 3467.27,1429.22 c 4.5,-1.68 9.61,-2.67 14.37,-3.23 49.82,-5.9 93.82,1.07 100.4,7.28 -1.7,1.54 -8.41,5.82 -33.29,10.58 -32.83,6.25 -61.51,-1.98 -81.48,-14.63 m -12.62,-56.22 2.59,-0.7 c 35.3,-8.65 82.98,-10.12 99.33,-7.44 -5.07,2.14 -15.41,5.56 -36.36,10.18 -27.73,6.11 -49.41,4.21 -65.56,-2.04 m -33.34,-65.68 c 2.76,-5.12 6.87,-9.34 12.2,-12.17 22.56,-12.01 66.96,-14.76 83.61,-8.04 3.41,1.38 3.92,2.52 3.92,2.53 0,0.03 -0.55,5.62 -25.01,16.09 -28.03,11.99 -50.39,13.67 -68.31,5.18 -2.19,-1.05 -4.33,-2.24 -6.41,-3.59 m -54.25,-93.32 -1.39,0.2 c -2.65,0.76 -4.18,3.54 -3.42,6.18 13.32,46.4 27.87,74.75 47,90.51 -2.93,9.96 -2.6,21.4 1.53,32.59 4.02,10.89 11.79,21.71 23.61,30.05 -5.79,6.26 -7.94,14.45 -5.9,23.81 2.27,10.41 9.84,21.7 21.36,31.57 -4.52,5.2 -5.63,10.88 -5.67,15.07 -0.25,29.83 55.08,75.26 117.63,83.79 2.74,0.51 5.26,-1.53 5.63,-4.27 0.37,-2.74 -1.55,-5.26 -4.29,-5.63 -59.37,-8.1 -109.16,-51.09 -108.97,-73.8 0.03,-3.68 1.4,-6.64 3.62,-9.03 22.52,15.67 55.75,25.75 92.82,18.63 30.7,-5.87 43.18,-12.35 41.73,-21.67 -2.72,-17.53 -68.09,-21.15 -111.9,-15.93 -9.92,1.18 -17.19,3.52 -22.5,6.45 -10.89,-8.91 -17.86,-18.91 -19.69,-27.3 -1.63,-7.5 0.79,-12.72 4.95,-16.36 18.57,9.57 44.7,13.57 79.16,5.95 45.37,-10.01 47.07,-15.54 48.08,-18.83 0.73,-2.36 0.14,-4.77 -1.61,-6.62 -9.56,-10.13 -79.06,-5.33 -113.98,3.23 -4.54,1.11 -8.56,2.63 -12.02,4.51 -11.58,-7.28 -19.01,-17.13 -22.68,-27.08 -2.94,-7.98 -3.61,-15.93 -2.25,-23.03 1.8,1.08 3.63,2.05 5.51,2.95 20.69,9.82 45.72,8.18 76.54,-5.01 20.45,-8.76 30.31,-16.5 31.03,-24.39 0.22,-2.34 -0.24,-6.8 -5.7,-10.42 -15.25,-10.13 -68.7,-8.6 -96.49,6.2 -6.55,3.5 -11.74,8.65 -15.38,14.86 -16.35,-14.93 -29.53,-41.66 -41.56,-83.55 -0.63,-2.2 -2.63,-3.63 -4.8,-3.63" /><path
         id="path146"
         style="fill:#17282f;fill-opacity:1;fill-rule:nonzero;stroke:none"
         d="m 2065.28,193.141 c 6.58,2.101 4.38,8.461 -2.98,8.461 h -135.39 c -257.81,27.308 -437.94,-9.293 -324.43,-17.911 113.5,-8.632 -8,-6.82 -90.89,-38.171 -82.88,-31.36 616.54,-39.27 680.16,0 58.67,36.199 -217.83,18.339 -126.47,47.621" /><path
         id="path148"
         style="fill:#406fbf;fill-opacity:1;fill-rule:nonzero;stroke:none"
         d="M 3034.69,153.23 1856.67,192.289 1807.78,1334.5 3198.89,1303.39 3034.69,153.23" /><path
         id="path150"
         style="fill:#17282f;fill-opacity:1;fill-rule:nonzero;stroke:none"
         d="m 2224.52,175.09 c -2.58,0 -4.77,1.969 -4.98,4.59 l -94.44,1147.21 c -0.22,2.75 1.82,5.16 4.58,5.39 2.82,0.15 5.17,-1.82 5.39,-4.57 L 2229.51,180.5 c 0.22,-2.758 -1.82,-5.168 -4.58,-5.391 l -0.41,-0.019" /><path
         id="path152"
         style="fill:#406fbf;fill-opacity:1;fill-rule:nonzero;stroke:none"
         d="m 3034.69,153.23 316.62,48.211 99.73,1062.099 -252.15,39.85 -164.2,-1150.16" /><path
         id="path154"
         style="fill:#3563b7;fill-opacity:1;fill-rule:nonzero;stroke:none"
         d="m 3034.69,153.23 12.37,86.641 c 1.36,0.039 2.7,0.059 4,0.059 38.06,0 51.32,-17.25 52.05,-18.258 -0.82,1.129 -1.15,1.828 -1.15,1.828 l 86.08,50.891 c -1.88,3.179 -37.5,61.25 -126.73,65.347 l 137.58,963.652 252.15,-39.85 -34.13,-363.419 -0.23,-2.5 -41.88,-445.992 -0.23,-2.5 -10.01,-106.57 -0.23,-2.5 -13.02,-138.618 -316.62,-48.211" /><path
         id="path156"
         style="fill:#17282f;fill-opacity:1;fill-rule:nonzero;stroke:none"
         d="m 1957.34,412.449 -29.04,678.631 c -3.03,70.82 54.44,129.49 125.32,127.9 l 880.59,-19.69 c 73.53,-1.65 129.1,-67.19 118.71,-140 l -97.63,-683.919 c -8.85,-61.98 -62.95,-107.351 -125.52,-105.281 l -753.91,24.988 c -64.12,2.133 -115.77,53.293 -118.52,117.371" /><path
         id="path158"
         style="fill:#ffffff;fill-opacity:1;fill-rule:nonzero;stroke:none"
         d="m 2052.47,1010.73 136.24,-4.33 -1.12,-35.13 -85.29,2.71 -0.83,-26.14 79.12,-2.52 -1.07,-33.55 -79.12,2.511 -1.03,-32.429 87.76,-2.801 -1.19,-37.25 -138.7,4.41 5.23,164.519" /><path
         id="path160"
         style="fill:#ffffff;fill-opacity:1;fill-rule:nonzero;stroke:none"
         d="m 2268.18,937.141 21.43,-0.68 c 2.32,-0.07 6.83,0.527 13.54,1.809 3.39,0.57 6.19,2.199 8.41,4.902 2.22,2.699 3.39,5.848 3.5,9.437 0.17,5.313 -1.38,9.442 -4.66,12.391 -3.27,2.949 -9.55,4.582 -18.83,4.871 l -22.33,0.719 z M 2214,840.91 l 5.24,164.52 84.72,-2.7 c 15.72,-0.5 27.68,-2.23 35.9,-5.191 8.22,-2.949 14.75,-8.16 19.61,-15.617 4.86,-7.461 7.12,-16.422 6.78,-26.891 -0.29,-9.133 -2.49,-16.941 -6.59,-23.441 -4.1,-6.5 -9.62,-11.699 -16.57,-15.59 -4.42,-2.48 -10.44,-4.469 -18.06,-5.949 5.99,-2.219 10.34,-4.379 13.04,-6.481 1.83,-1.41 4.45,-4.379 7.86,-8.91 3.41,-4.531 5.68,-8.012 6.79,-10.449 l 23.11,-48.461 -57.45,1.84 -25.57,51.14 c -3.24,6.61 -6.17,10.942 -8.8,12.969 -3.59,2.66 -7.7,4.063 -12.34,4.211 l -4.48,0.149 -2.13,-66.778 -51.06,1.629" /><path
         id="path162"
         style="fill:#ffffff;fill-opacity:1;fill-rule:nonzero;stroke:none"
         d="m 2446.95,931.461 21.43,-0.691 c 2.32,-0.079 6.83,0.531 13.54,1.82 3.39,0.558 6.2,2.199 8.41,4.89 2.22,2.711 3.39,5.852 3.5,9.442 0.17,5.316 -1.38,9.449 -4.66,12.398 -3.27,2.95 -9.55,4.571 -18.83,4.86 l -22.33,0.711 z m -54.18,-96.242 5.24,164.519 84.73,-2.699 c 15.71,-0.5 27.67,-2.23 35.89,-5.18 8.22,-2.961 14.75,-8.168 19.61,-15.617 4.86,-7.461 7.12,-16.433 6.78,-26.902 -0.29,-9.129 -2.48,-16.942 -6.58,-23.442 -4.11,-6.5 -9.63,-11.687 -16.57,-15.597 -4.43,-2.481 -10.45,-4.449 -18.07,-5.93 5.99,-2.223 10.34,-4.379 13.05,-6.492 1.82,-1.399 4.44,-4.367 7.85,-8.899 3.41,-4.539 5.68,-8.019 6.8,-10.449 l 23.1,-48.461 -57.45,1.828 -25.57,51.141 c -3.23,6.609 -6.17,10.941 -8.8,12.973 -3.58,2.66 -7.7,4.066 -12.33,4.218 l -4.49,0.141 -2.13,-66.781 -51.06,1.629" /><path
         id="path164"
         style="fill:#ffffff;fill-opacity:1;fill-rule:nonzero;stroke:none"
         d="m 2613.99,910.191 c -0.53,-16.621 2.18,-28.652 8.12,-36.101 5.94,-7.449 14.22,-11.348 24.85,-11.692 10.92,-0.347 19.49,2.942 25.7,9.864 6.21,6.91 9.61,19.578 10.19,37.98 0.5,15.477 -2.27,26.899 -8.28,34.238 -6.03,7.352 -14.38,11.192 -25.08,11.54 -10.26,0.32 -18.6,-3.051 -25.04,-10.11 -6.44,-7.058 -9.93,-18.969 -10.46,-35.719 z m -50.83,1.829 c 0.86,26.871 9,47.539 24.44,62.019 15.44,14.492 36.51,21.313 63.22,20.461 27.39,-0.871 48.25,-8.891 62.6,-24.059 14.34,-15.179 21.09,-36.011 20.25,-62.492 -0.61,-19.23 -4.35,-34.89 -11.21,-46.988 -6.87,-12.102 -16.52,-21.379 -28.97,-27.84 -12.45,-6.461 -27.8,-9.391 -46.06,-8.812 -18.55,0.589 -33.81,4.031 -45.78,10.332 -11.98,6.3 -21.53,15.961 -28.68,28.988 -7.15,13.043 -10.42,29.172 -9.81,48.391" /><path
         id="path166"
         style="fill:#ffffff;fill-opacity:1;fill-rule:nonzero;stroke:none"
         d="m 2813.25,919.801 21.43,-0.692 c 2.32,-0.07 6.83,0.539 13.54,1.821 3.39,0.562 6.19,2.199 8.41,4.902 2.22,2.707 3.39,5.848 3.5,9.43 0.17,5.32 -1.38,9.449 -4.66,12.398 -3.28,2.949 -9.55,4.578 -18.83,4.871 l -22.33,0.707 z m -54.18,-96.242 5.23,164.531 84.74,-2.699 c 15.71,-0.512 27.67,-2.231 35.89,-5.192 8.22,-2.949 14.76,-8.168 19.61,-15.617 4.86,-7.461 7.12,-16.434 6.78,-26.891 -0.29,-9.132 -2.48,-16.953 -6.59,-23.441 -4.1,-6.508 -9.63,-11.699 -16.57,-15.602 -4.42,-2.476 -10.44,-4.457 -18.06,-5.937 5.99,-2.211 10.34,-4.379 13.04,-6.481 1.83,-1.421 4.45,-4.378 7.86,-8.921 3.41,-4.528 5.68,-8 6.8,-10.438 l 23.1,-48.461 -57.45,1.832 -25.57,51.149 c -3.24,6.609 -6.17,10.929 -8.8,12.968 -3.58,2.653 -7.7,4.063 -12.34,4.211 l -4.48,0.141 -2.13,-66.781 -51.06,1.629" /><path
         id="path168"
         style="fill:#ffffff;fill-opacity:1;fill-rule:nonzero;stroke:none"
         d="m 2839.99,544.031 c -3.56,0 -7.1,1.438 -9.7,4.27 l -85.6,93.687 -92.37,-84.386 c -5.35,-4.903 -13.65,-4.512 -18.55,0.828 l -85.6,93.691 -92.37,-84.391 c -5.35,-4.898 -13.66,-4.519 -18.54,0.829 l -85.61,93.691 -92.37,-84.41 c -2.56,-2.352 -6.02,-3.578 -9.44,-3.43 -3.48,0.16 -6.75,1.692 -9.1,4.262 l -85.61,93.687 -92.37,-84.39 c -5.34,-4.887 -13.65,-4.5 -18.54,0.832 -4.89,5.347 -4.51,13.66 0.84,18.539 l 102.05,93.262 c 5.35,4.91 13.66,4.519 18.55,-0.832 l 85.6,-93.7 92.37,84.41 c 2.57,2.352 6.01,3.559 9.45,3.43 3.47,-0.16 6.75,-1.691 9.1,-4.262 l 85.6,-93.687 92.37,84.391 c 5.34,4.898 13.65,4.519 18.55,-0.832 l 85.6,-93.688 92.37,84.398 c 5.35,4.911 13.65,4.532 18.54,-0.832 l 94.47,-103.378 c 4.89,-5.36 4.51,-13.668 -0.84,-18.551 -2.52,-2.297 -5.69,-3.438 -8.85,-3.438" /><path
         id="path170"
         style="fill:#406fbf;fill-opacity:1;fill-rule:nonzero;stroke:none"
         d="m 1257.5,128.949 -62.58,29.852 -55.83,271.668 30.3,33.371 88.11,-334.891" /><path
         id="path172"
         style="fill:#406fbf;fill-opacity:1;fill-rule:nonzero;stroke:none"
         d="m 1257.5,128.949 83.05,48.512 -71.2,223.84 -99.96,62.539 88.11,-334.891" /><path
         id="path174"
         style="fill:#3563b7;fill-opacity:1;fill-rule:nonzero;stroke:none"
         d="m 1257.5,128.949 -88.11,334.891 99.96,-62.539 71.2,-223.84 -83.05,-48.512" /><path
         id="path176"
         style="fill:#17282f;fill-opacity:1;fill-rule:nonzero;stroke:none"
         d="m 2619.49,79.5586 c -2.36,0 -4.67,0.043 -6.91,0.1016 -27.6,0.7617 -49.37,23.7498 -48.61,51.3598 0.76,27.582 23.56,49.281 51.35,48.601 77.03,-2.519 240.06,44.801 333.19,135.199 5.76,5.59 12.77,9.711 20.46,12.02 157.88,47.379 216.65,-48.34 219.07,-52.449 L 3101.96,223.5 c 0,0 0.33,-0.699 1.15,-1.828 -0.95,1.316 -23.31,30.387 -94.51,12.398 C 2891.73,127.391 2712.33,79.5586 2619.49,79.5586" /><path
         id="path178"
         style="fill:#406fbf;fill-opacity:1;fill-rule:nonzero;stroke:none"
         d="m 2613.95,13.1016 -182.13,11.4687 -14.37,335.7617 244.77,-9.141 -48.27,-338.0894" /><path
         id="path180"
         style="fill:#406fbf;fill-opacity:1;fill-rule:nonzero;stroke:none"
         d="m 2613.95,13.1016 42.57,42.3593 26.39,209.3591 -20.69,86.371 -48.27,-338.0894" /><path
         id="path182"
         style="fill:#3563b7;fill-opacity:1;fill-rule:nonzero;stroke:none"
         d="m 2613.95,13.1016 48.27,338.0894 20.69,-86.371 -26.39,-209.3591 -42.57,-42.3593" /><path
         id="path184"
         style="fill:#17282f;fill-opacity:1;fill-rule:nonzero;stroke:none"
         d="m 3669.1,140.242 c -6.32,0 -12.7,1.996 -18.13,6.117 -103.94,79 -244.45,219.262 -298.37,354.571 -0.78,1.968 -1.36,4.031 -1.71,6.129 -26.29,156.332 -51.41,485.41 -52.47,499.351 -1.25,16.51 11.13,30.92 27.64,32.17 16.48,1.22 30.94,-11.12 32.19,-27.64 0.26,-3.36 25.62,-335.67 51.28,-490.729 53.77,-131.57 199.57,-266.66 277.75,-326.082 13.19,-10.027 15.76,-28.848 5.73,-42.039 -5.9,-7.758 -14.85,-11.848 -23.91,-11.848" /><path
         id="path186"
         style="fill:#17282f;fill-opacity:1;fill-rule:nonzero;stroke:none"
         d="m 3807.78,125.09 c -23.2,0 -49.49,10.519 -78.15,31.25 -13.42,9.719 -16.43,28.469 -6.71,41.89 9.72,13.418 28.47,16.43 41.89,6.719 24.77,-17.929 38.3,-19.859 42.97,-19.859 16.57,0 30,-13.43 30,-30 0,-16.57 -13.43,-30 -30,-30" /><path
         id="path188"
         style="fill:#406fbf;fill-opacity:1;fill-rule:nonzero;stroke:none"
         d="m 3738.04,157.191 c 32.1,95.36 163.7,76.508 209.02,62.348 45.32,-14.16 86.15,-31.969 110.69,-48.027 24.55,-16.043 24.95,-42.852 -7.78,-58.16 -40.36,-18.8832 -141.62,-2.122 -141.62,-2.122 52.42,-22.9487 -0.1,-59.73 -92.05,-23.6011 -29.93,11.7617 -89.59,34.6331 -78.26,69.5621" /><path
         id="path190"
         style="fill:#17282f;fill-opacity:1;fill-rule:nonzero;stroke:none"
         d="m 3418.62,965.25 c -11.92,-81.012 -79,-140.762 -133.58,-132.738 -54.58,8.027 -56.84,80.379 -44.94,161.398 11.92,81.02 33.5,140.02 88.07,131.99 54.58,-8.02 102.36,-79.63 90.45,-160.65" /><path
         id="path192"
         style="fill:#17282f;fill-opacity:1;fill-rule:nonzero;stroke:none"
         d="m 2106.94,1296.87 c 0,-4.53 -3.66,-8.2 -8.19,-8.2 -4.53,0 -8.19,3.67 -8.19,8.2 0,4.52 3.66,8.19 8.19,8.19 4.53,0 8.19,-3.67 8.19,-8.19" /><path
         id="path194"
         style="fill:#17282f;fill-opacity:1;fill-rule:nonzero;stroke:none"
         d="m 2182.08,1237.84 c 0,-4.53 -3.66,-8.2 -8.19,-8.2 -4.53,0 -8.2,3.67 -8.2,8.2 0,4.52 3.67,8.2 8.2,8.2 4.53,0 8.19,-3.68 8.19,-8.2" /><path
         id="path196"
         style="fill:#17282f;fill-opacity:1;fill-rule:nonzero;stroke:none"
         d="m 2191.25,268.789 c 0,-4.527 -3.67,-8.187 -8.19,-8.187 -4.53,0 -8.2,3.66 -8.2,8.187 0,4.52 3.67,8.191 8.2,8.191 4.52,0 8.19,-3.671 8.19,-8.191" /><path
         id="path198"
         style="fill:#17282f;fill-opacity:1;fill-rule:nonzero;stroke:none"
         d="m 2266.39,209.762 c 0,-4.532 -3.67,-8.203 -8.2,-8.203 -4.52,0 -8.19,3.671 -8.19,8.203 0,4.527 3.67,8.199 8.19,8.199 4.53,0 8.2,-3.672 8.2,-8.199" /><path
         id="path200"
         style="fill:#17282f;fill-opacity:1;fill-rule:nonzero;stroke:none"
         d="m 935.078,211.602 h -0.019 c -0.024,-0.012 -3.754,-1.903 -5.204,-18.602 -1.46,-16.828 1.594,-28.23 9.34,-34.84 1.758,-1.512 3.766,-2.769 5.993,-3.789 2.824,3.121 4.757,6.629 5.433,10.277 2.68,14.493 -4.226,35.711 -11.961,44.301 -2.012,2.231 -3.305,2.653 -3.582,2.653 z m -62.91,-8.68 c -0.059,-3.762 0.281,-10.082 1.773,-20.59 2.028,-14.273 7.293,-25.242 15.184,-32.223 -2.34,20.082 -11.25,43.332 -16.957,52.813 z m -55.715,-8.723 c -0.574,-1.527 -1.625,-6.59 0.848,-20.437 3.285,-18.403 15.199,-30.621 28.39,-37.082 -0.062,2.129 -0.453,4.492 -1.16,7.082 -7.851,28.578 -22.785,48.277 -28.078,50.437 z m 8.649,-82.769 c -23.797,0 -55.977,14.422 -73.332,39.492 -1.575,2.258 -1.008,5.379 1.261,6.949 2.274,1.578 5.383,1.008 6.957,-1.269 18.664,-26.942 59.793,-41.313 78.055,-32.801 1.918,0.898 3.477,2.031 4.672,3.39 -16.32,7.539 -31.238,22.297 -35.258,44.809 -2.266,12.68 -4.066,29.809 6.391,32.172 14.34,3.219 33.105,-31.461 40.324,-57.75 1.336,-4.871 1.758,-9.371 1.301,-13.434 6.324,-1.726 12.539,-2.179 17.867,-1.406 4.328,0.629 10.484,2.41 13.746,7.449 -12.148,8.219 -20.324,22.688 -23.047,41.899 -3.879,27.34 -0.973,32.109 2.059,34.441 1.972,1.52 4.472,1.801 6.882,0.777 10.692,-4.546 23.653,-43.339 26.125,-65.289 0.27,-2.418 0.274,-4.738 0.028,-6.929 4.09,-1.629 8.601,-2.52 13.484,-2.621 8.668,-0.5 17.242,2.261 24.098,6.293 -1.418,0.886 -2.762,1.867 -4.02,2.949 -10.375,8.859 -14.558,23.031 -12.8,43.308 1.355,15.672 4.925,24.243 11.226,26.93 2.207,0.981 6.711,1.902 12.078,-2.391 10.793,-8.628 20.883,-35.976 17.254,-55.566 -0.75,-4.051 -2.5,-7.941 -5.023,-11.512 18.347,-3.16 44.172,1.989 66.44,7.489 2.67,0.652 5.39,-0.969 6.05,-3.649 0.66,-2.691 -0.97,-5.39 -3.65,-6.058 -27.098,-6.704 -56.274,-12.153 -76.875,-6.172 -9.165,-7.282 -22.059,-11.711 -34.985,-11.621 -5.89,0.121 -11.379,1.171 -16.39,3.082 -3.942,-6.711 -11.274,-11.25 -21.239,-12.711 -6.64,-0.989 -14.465,-0.352 -22.379,1.91 -2.25,-3.75 -5.648,-6.75 -10.132,-8.852 -4.782,-2.226 -10.661,-3.297 -17.168,-3.308" /><path
         id="path202"
         style="fill:#17282f;fill-opacity:1;fill-rule:nonzero;stroke:none"
         d="m 2288.73,35.8398 27.1,47 -27.1,46.9922 h -29.01 l 16.39,-47 -16.39,-46.9922 h 29.01" /><path
         id="path204"
         style="fill:#17282f;fill-opacity:1;fill-rule:nonzero;stroke:none"
         d="m 2261.63,58.3398 c -13.5,0 -24.5,11 -24.5,24.5 0,13.5 11,24.3982 24.5,24.3982 l -46.07,9.223 -12.23,-37.211 20.56,-31.3906 37.74,10.4804" /><path
         id="path206"
         style="fill:#406fbf;fill-opacity:1;fill-rule:nonzero;stroke:none"
         d="m 2238.47,58.3398 c -13.5,0 -24.5,11 -24.5,24.5 0,13.5 11,24.3982 24.5,24.3982 13.5,0 24.4,-10.8982 24.4,-24.3982 0,-13.5 -10.9,-24.5 -24.4,-24.5 z m 27.1,71.4922 h -54.3 l -27.1,-46.9922 27.1,-47 h 54.3 l 27.1,47 -27.1,46.9922" /><path
         id="path208"
         style="fill:#406fbf;fill-opacity:1;fill-rule:nonzero;stroke:none"
         d="m 4178.89,132.969 -20.12,34.902 20.12,34.899 h 21.55 l -12.17,-34.899 12.17,-34.902 h -21.55" /><path
         id="path210"
         style="fill:#406fbf;fill-opacity:1;fill-rule:nonzero;stroke:none"
         d="m 4199.02,149.68 c 10.03,0 18.2,8.16 18.2,18.191 0,10.02 -8.17,18.129 -18.2,18.129 l 34.22,6.84 9.08,-27.629 -15.27,-23.313 -28.03,7.782" /><path
         id="path212"
         style="fill:#17282f;fill-opacity:1;fill-rule:nonzero;stroke:none"
         d="m 4216.23,149.68 c 10.02,0 18.19,8.16 18.19,18.191 0,10.02 -8.17,18.129 -18.19,18.129 -10.03,0 -18.13,-8.109 -18.13,-18.129 0,-10.031 8.1,-18.191 18.13,-18.191 z m -20.13,53.09 h 40.33 l 20.12,-34.899 -20.12,-34.902 h -40.33 l -20.13,34.902 20.13,34.899" /><path
         id="path214"
         style="fill:#17282f;fill-opacity:1;fill-rule:nonzero;stroke:none"
         d="m 3429.48,86.6289 h 45.18 c 11.76,0 21.39,9.6328 21.39,21.4021 0,11.758 -9.63,21.379 -21.39,21.379 h -45.18 c -11.77,0 -21.39,-9.621 -21.39,-21.379 0,-11.7693 9.62,-21.4021 21.39,-21.4021" /><path
         id="path216"
         style="fill:#406fbf;fill-opacity:1;fill-rule:nonzero;stroke:none"
         d="m 3357.3,126.98 c 11.15,23.668 38.2,34.36 60.41,23.891 22.21,-10.48 31.17,-38.141 20.02,-61.8124 -11.16,-23.6602 -38.21,-34.3477 -60.42,-23.8672 -22.21,10.4688 -31.17,38.1286 -20.01,61.7886" /><path
         id="path218"
         style="fill:#17282f;fill-opacity:1;fill-rule:nonzero;stroke:none"
         d="m 3369.78,65.2617 12.39,-5.8515 43.08,91.3788 -12.39,5.84 -43.08,-91.3673" /></g></g>
      </svg>